<?xml version="1.0" standalone="no"?>
<!DOCTYPE svg PUBLIC "-//W3C//DTD SVG 20010904//EN"
 "http://www.w3.org/TR/2001/REC-SVG-20010904/DTD/svg10.dtd">
<svg version="1.0" xmlns="http://www.w3.org/2000/svg"
 width="108.000000pt" height="108.000000pt" viewBox="0 0 108.000000 108.000000"
 preserveAspectRatio="xMidYMid meet">

<g transform="translate(0.000000,108.000000) scale(0.100000,-0.100000)"
fill="#000000" stroke="none">
<path d="M237 1028 c8 -29 26 -74 39 -100 13 -26 24 -55 24 -65 0 -9 12 -55
26 -101 l25 -85 -47 -48 c-27 -27 -64 -54 -84 -60 -19 -7 -57 -23 -83 -36 -48
-24 -49 -25 -42 -61 57 -304 366 -466 640 -337 125 59 227 195 249 330 l7 41
-68 31 c-37 17 -80 36 -94 41 -15 6 -39 26 -53 45 -25 33 -26 36 -11 70 8 20
15 50 15 66 0 16 5 42 10 57 6 14 12 80 14 145 l3 119 -293 0 -293 0 16 -52z
m340 16 c-3 -3 -12 -4 -19 -1 -8 3 -5 6 6 6 11 1 17 -2 13 -5z m72 -15 c32
-11 42 -29 16 -29 -24 0 -73 -28 -84 -48 -6 -12 -5 -46 5 -102 9 -53 11 -87 5
-93 -5 -5 -7 -16 -4 -23 4 -11 -2 -12 -27 -8 -18 4 -35 3 -39 -2 -3 -5 -19
-14 -36 -19 -24 -8 -31 -17 -33 -44 l-4 -34 -40 44 c-46 50 -73 102 -89 178
-12 56 -1 104 27 115 11 4 12 2 5 -13 -10 -17 -7 -18 37 -14 44 4 46 3 28 -11
-24 -19 -40 -21 -30 -3 4 6 3 8 -1 4 -15 -13 -14 -37 1 -37 8 0 14 5 14 10 0
6 9 5 21 -2 17 -10 23 -10 26 0 3 6 9 12 14 12 6 0 7 -4 4 -10 -3 -6 1 -7 10
-4 10 4 15 14 12 25 -4 14 0 19 15 19 40 0 0 26 -44 29 -23 1 -44 4 -46 6 -7
7 113 46 130 42 11 -3 15 -1 12 5 -4 6 1 8 12 4 11 -3 26 -1 34 4 18 12 11 12
49 -1z m27 -109 c8 0 14 -6 14 -14 0 -8 11 -13 25 -13 14 0 29 -3 32 -7 9 -9
-16 -105 -34 -134 -19 -31 -59 -27 -55 5 2 12 -4 37 -14 54 -27 54 -35 89 -21
105 7 7 18 11 25 9 8 -3 20 -5 28 -5z m-76 -225 c0 -2 -12 -11 -27 -20 l-28
-15 30 1 c45 2 47 1 35 -21 -6 -12 -21 -20 -35 -20 -29 0 -33 -15 -8 -28 11
-6 25 -6 40 1 13 5 26 8 29 4 24 -24 -74 -55 -118 -36 -50 21 -67 83 -25 98
12 5 21 12 19 17 -1 5 14 12 35 15 21 3 41 7 46 8 4 0 7 -1 7 -4z m75 -25 c3
-5 1 -10 -4 -10 -6 0 -11 5 -11 10 0 6 2 10 4 10 3 0 8 -4 11 -10z m-158 -159
c12 -6 51 -11 87 -11 36 0 66 -2 66 -4 0 -2 -7 -23 -15 -46 -21 -60 -19 -64
18 -37 53 40 64 41 25 4 -59 -57 -168 -76 -168 -29 0 14 -2 15 -9 3 -8 -12
-14 -13 -35 -3 -14 6 -26 19 -26 28 0 9 -9 28 -20 44 -29 40 -60 117 -60 148
0 25 3 24 58 -30 31 -31 67 -61 79 -67z m268 -181 c5 -8 4 -11 -1 -7 -12 7
-41 -9 -32 -18 3 -4 14 -8 24 -9 31 -5 26 -20 -18 -61 l-43 -40 34 38 c19 20
30 37 23 37 -16 0 -33 35 -26 54 3 9 11 13 17 9 7 -4 8 0 3 13 -4 10 -10 35
-12 54 -3 30 -2 28 10 -11 7 -26 17 -52 21 -59z m-565 6 c0 -11 -19 -15 -25
-6 -3 5 1 10 9 10 9 0 16 -2 16 -4z m107 -78 c-3 -7 -5 -2 -5 12 0 14 2 19 5
13 2 -7 2 -19 0 -25z"/>
</g>
</svg>
